<svg width="1920" height="1080" viewBox="0 0 1920 1080" fill="none" xmlns="http://www.w3.org/2000/svg">
  <!-- Background Gradient -->
  <defs>
    <linearGradient id="backgroundGradient" x1="0%" y1="0%" x2="100%" y2="100%">
      <stop offset="0%" style="stop-color:#0f172a;stop-opacity:1" />
      <stop offset="30%" style="stop-color:#1e293b;stop-opacity:1" />
      <stop offset="70%" style="stop-color:#334155;stop-opacity:1" />
      <stop offset="100%" style="stop-color:#475569;stop-opacity:1" />
    </linearGradient>
    
    <linearGradient id="techGradient" x1="0%" y1="0%" x2="100%" y2="0%">
      <stop offset="0%" style="stop-color:#3b82f6;stop-opacity:0.8" />
      <stop offset="100%" style="stop-color:#06b6d4;stop-opacity:0.8" />
    </linearGradient>
    
    <radialGradient id="glowGradient" cx="50%" cy="50%" r="50%">
      <stop offset="0%" style="stop-color:#3b82f6;stop-opacity:0.3" />
      <stop offset="100%" style="stop-color:#3b82f6;stop-opacity:0" />
    </radialGradient>
  </defs>
  
  <!-- Background -->
  <rect width="1920" height="1080" fill="url(#backgroundGradient)"/>
  
  <!-- Tech Background Elements -->
  <circle cx="1600" cy="200" r="150" fill="url(#glowGradient)" opacity="0.4"/>
  <circle cx="1700" cy="400" r="100" fill="url(#glowGradient)" opacity="0.3"/>
  <circle cx="1500" cy="600" r="80" fill="url(#glowGradient)" opacity="0.5"/>
  
  <!-- Circuit Pattern on Right Side -->
  <g opacity="0.2" stroke="#3b82f6" stroke-width="2" fill="none">
    <!-- Vertical Lines -->
    <line x1="1400" y1="0" x2="1400" y2="1080"/>
    <line x1="1500" y1="0" x2="1500" y2="1080"/>
    <line x1="1600" y1="0" x2="1600" y2="1080"/>
    <line x1="1700" y1="0" x2="1700" y2="1080"/>
    
    <!-- Horizontal Lines -->
    <line x1="1300" y1="200" x2="1920" y2="200"/>
    <line x1="1300" y1="400" x2="1920" y2="400"/>
    <line x1="1300" y1="600" x2="1920" y2="600"/>
    <line x1="1300" y1="800" x2="1920" y2="800"/>
    
    <!-- Circuit Nodes -->
    <circle cx="1400" cy="200" r="8" fill="#3b82f6"/>
    <circle cx="1500" cy="400" r="8" fill="#06b6d4"/>
    <circle cx="1600" cy="600" r="8" fill="#3b82f6"/>
    <circle cx="1700" cy="800" r="8" fill="#06b6d4"/>
  </g>
  
  <!-- Tech Icons on Right Side -->
  <g transform="translate(1400, 300)" opacity="0.6">
    <!-- Cloud Icon -->
    <path d="M40 20C40 8.954 31.046 0 20 0S0 8.954 0 20c0 8.837 5.74 16.347 13.684 19.003C15.129 39.67 16.025 40 17 40h26c.975 0 1.871-.33 3.316-.997C54.26 36.347 60 28.837 60 20z" fill="url(#techGradient)"/>
  </g>
  
  <g transform="translate(1500, 500)" opacity="0.6">
    <!-- Server Icon -->
    <rect x="0" y="0" width="60" height="40" rx="4" fill="url(#techGradient)"/>
    <rect x="5" y="5" width="50" height="8" rx="2" fill="#ffffff" opacity="0.3"/>
    <rect x="5" y="16" width="50" height="8" rx="2" fill="#ffffff" opacity="0.3"/>
    <rect x="5" y="27" width="50" height="8" rx="2" fill="#ffffff" opacity="0.3"/>
  </g>
  
  <g transform="translate(1300, 700)" opacity="0.6">
    <!-- Database Icon -->
    <ellipse cx="30" cy="10" rx="30" ry="10" fill="url(#techGradient)"/>
    <rect x="0" y="10" width="60" height="20" fill="url(#techGradient)"/>
    <ellipse cx="30" cy="30" rx="30" ry="10" fill="url(#techGradient)"/>
  </g>
  
  <!-- Network Connections -->
  <g opacity="0.3" stroke="#06b6d4" stroke-width="1" fill="none">
    <path d="M1430 320 Q1480 360 1530 520"/>
    <path d="M1530 540 Q1350 650 1330 720"/>
    <path d="M1430 340 Q1320 450 1330 700"/>
  </g>
  
  <!-- Geometric Shapes on Right -->
  <g opacity="0.15">
    <polygon points="1750,150 1800,100 1850,150 1800,200" fill="#3b82f6"/>
    <polygon points="1650,850 1700,800 1750,850 1700,900" fill="#06b6d4"/>
    <rect x="1820" y="450" width="60" height="60" rx="8" fill="#3b82f6" transform="rotate(45 1850 480)"/>
  </g>
  
  <!-- Particle Effects -->
  <g opacity="0.4">
    <circle cx="1450" cy="150" r="3" fill="#3b82f6">
      <animate attributeName="opacity" values="0.4;0.8;0.4" dur="2s" repeatCount="indefinite"/>
    </circle>
    <circle cx="1650" cy="250" r="2" fill="#06b6d4">
      <animate attributeName="opacity" values="0.3;0.7;0.3" dur="1.5s" repeatCount="indefinite"/>
    </circle>
    <circle cx="1550" cy="950" r="4" fill="#3b82f6">
      <animate attributeName="opacity" values="0.2;0.6;0.2" dur="2.5s" repeatCount="indefinite"/>
    </circle>
  </g>
</svg>