<svg width="400" height="300" viewBox="0 0 400 300" xmlns="http://www.w3.org/2000/svg">
  <defs>
    <style>
      .brain-outline { fill: none; stroke: #ffffff; stroke-width: 3; }
      .brain-circuit { fill: none; stroke: #ffffff; stroke-width: 2; }
      .brain-node { fill: #ffffff; }
      .gear-red { fill: #ef4444; }
      .gear-blue { fill: #3b82f6; }
      .gear-green { fill: #10b981; }
      .connection-line { stroke: #ffffff; stroke-width: 2; fill: none; }
      .circuit-board { fill: none; stroke: #ffffff; stroke-width: 2; }
      .progress-bar { fill: none; stroke: #ffffff; stroke-width: 3; }
      .progress-indicator { fill: #ffffff; }
      .animated-rotate { animation: rotate 8s linear infinite; }
      
      @keyframes rotate {
        from { transform: rotate(0deg); }
        to { transform: rotate(360deg); }
      }
    </style>
  </defs>
  
  <!-- Brain outline -->
  <path class="brain-outline" d="M120 80 Q140 60 180 70 Q220 60 240 80 Q260 100 250 140 Q240 160 220 170 Q200 180 180 170 Q160 180 140 170 Q120 160 110 140 Q100 100 120 80 Z"/>
  
  <!-- Brain circuits -->
  <g class="brain-circuit">
    <path d="M130 100 L150 120 L170 100 L190 120 L210 100"/>
    <path d="M140 130 L160 110 L180 130 L200 110"/>
    <circle cx="150" cy="120" r="3" class="brain-node"/>
    <circle cx="170" cy="100" r="3" class="brain-node"/>
    <circle cx="190" cy="120" r="3" class="brain-node"/>
    <rect x="160" y="95" width="20" height="15" rx="2" class="brain-outline"/>
    <line x1="165" y1="95" x2="165" y2="110" class="brain-circuit"/>
    <line x1="170" y1="95" x2="170" y2="110" class="brain-circuit"/>
    <line x1="175" y1="95" x2="175" y2="110" class="brain-circuit"/>
  </g>
  
  <!-- Profile outline -->
  <path class="brain-outline" d="M80 120 Q90 100 100 120 Q110 140 120 160 Q130 180 120 200 Q110 220 100 200 Q90 180 80 160 Q70 140 80 120"/>
  
  <!-- Neck connection -->
  <line x1="110" y1="200" x2="110" y2="240" class="connection-line"/>
  
  <!-- Gears -->
  <g class="animated-rotate" transform-origin="280 120">
    <circle cx="280" cy="120" r="18" class="gear-red"/>
    <circle cx="280" cy="120" r="12" fill="none" stroke="#ffffff" stroke-width="2"/>
    <g stroke="#ffffff" stroke-width="3">
      <line x1="280" y1="102" x2="280" y2="94"/>
      <line x1="298" y1="120" x2="306" y2="120"/>
      <line x1="280" y1="138" x2="280" y2="146"/>
      <line x1="262" y1="120" x2="254" y2="120"/>
      <line x1="293" y1="107" x2="299" y2="101"/>
      <line x1="293" y1="133" x2="299" y2="139"/>
      <line x1="267" y1="133" x2="261" y2="139"/>
      <line x1="267" y1="107" x2="261" y2="101"/>
    </g>
  </g>
  
  <g class="animated-rotate" transform-origin="320 140" style="animation-delay: 1s;">
    <circle cx="320" cy="140" r="15" class="gear-blue"/>
    <circle cx="320" cy="140" r="10" fill="none" stroke="#ffffff" stroke-width="2"/>
    <g stroke="#ffffff" stroke-width="2">
      <line x1="320" y1="125" x2="320" y2="119"/>
      <line x1="335" y1="140" x2="341" y2="140"/>
      <line x1="320" y1="155" x2="320" y2="161"/>
      <line x1="305" y1="140" x2="299" y2="140"/>
      <line x1="331" y1="129" x2="336" y2="124"/>
      <line x1="331" y1="151" x2="336" y2="156"/>
      <line x1="309" y1="151" x2="304" y2="156"/>
      <line x1="309" y1="129" x2="304" y2="124"/>
    </g>
  </g>
  
  <g class="animated-rotate" transform-origin="300 160" style="animation-delay: 2s;">
    <circle cx="300" cy="160" r="12" class="gear-green"/>
    <circle cx="300" cy="160" r="8" fill="none" stroke="#ffffff" stroke-width="2"/>
    <g stroke="#ffffff" stroke-width="2">
      <line x1="300" y1="148" x2="300" y2="143"/>
      <line x1="312" y1="160" x2="317" y2="160"/>
      <line x1="300" y1="172" x2="300" y2="177"/>
      <line x1="288" y1="160" x2="283" y2="160"/>
      <line x1="308" y1="152" x2="312" y2="148"/>
      <line x1="308" y1="168" x2="312" y2="172"/>
      <line x1="292" y1="168" x2="288" y2="172"/>
      <line x1="292" y1="152" x2="288" y2="148"/>
    </g>
  </g>
  
  <!-- Progress bar -->
  <rect x="130" y="240" width="120" height="8" rx="4" class="progress-bar"/>
  <rect x="130" y="240" width="80" height="8" rx="4" class="progress-indicator"/>
  
  <!-- Connection lines -->
  <line x1="240" y1="140" x2="260" y2="120" class="connection-line"/>
  <line x1="110" y1="240" x2="130" y2="240" class="connection-line"/>
  
  <!-- Circuit board representation -->
  <g class="circuit-board">
    <rect x="80" y="260" width="60" height="30" rx="5"/>
    <circle cx="90" cy="275" r="3" class="brain-node"/>
    <circle cx="110" cy="275" r="3" class="brain-node"/>
    <circle cx="130" cy="275" r="3" class="brain-node"/>
    <line x1="90" y1="275" x2="110" y2="275"/>
    <line x1="110" y1="275" x2="130" y2="275"/>
    <line x1="100" y1="265" x2="100" y2="285"/>
    <line x1="120" y1="265" x2="120" y2="285"/>
  </g>
  
  <!-- Main processor -->
  <g>
    <circle cx="310" cy="260" r="25" class="brain-outline"/>
    <path d="M295 250 L325 250 L320 270 L300 270 Z" class="brain-outline"/>
    <line x1="300" y1="260" x2="320" y2="260" class="brain-circuit"/>
    <line x1="310" y1="250" x2="310" y2="270" class="brain-circuit"/>
  </g>
  
  <!-- Connection from circuit board to processor -->
  <line x1="140" y1="275" x2="285" y2="260" class="connection-line"/>
  
  <!-- Additional connection indicators -->
  <g stroke="#ef4444" stroke-width="2">
    <line x1="250" y1="240" x2="270" y2="230"/>
    <line x1="260" y1="245" x2="280" y2="235"/>
  </g>
  
  <g stroke="#f59e0b" stroke-width="2">
    <line x1="330" y1="240" x2="350" y2="230"/>
    <line x1="340" y1="245" x2="360" y2="235"/>
  </g>
</svg>