<svg xmlns="http://www.w3.org/2000/svg" width="100" height="100" viewBox="0 0 100 100" fill="none"><path fill-rule="evenodd" clip-rule="evenodd" d="M80.3172 80.1845H19.6211C18.8447 80.1845 18.2148 79.5546 18.2148 78.7782V43.2344C18.2148 42.458 18.8447 41.8281 19.6211 41.8281H80.3172C81.0935 41.8281 81.7234 42.458 81.7234 43.2344V78.7782C81.7234 79.5546 81.0935 80.1845 80.3172 80.1845ZM21.0274 77.372H78.9109V44.6406H21.0274V77.372Z" fill="white"></path><path fill-rule="evenodd" clip-rule="evenodd" d="M72.7546 52.3593H27.1856C26.4092 52.3593 25.7793 51.7295 25.7793 50.9531C25.7793 50.1767 26.4092 49.5469 27.1856 49.5469H72.7546C73.531 49.5469 74.1609 50.1767 74.1609 50.9531C74.1609 51.7295 73.531 52.3593 72.7546 52.3593Z" fill="white"></path><path fill-rule="evenodd" clip-rule="evenodd" d="M31.7432 58.4882H27.1875C26.4111 58.4882 25.7812 57.8584 25.7812 57.082C25.7812 56.3057 26.4111 55.6758 27.1875 55.6758H31.7456C32.522 55.6758 33.1519 56.3057 33.1519 57.082C33.1494 57.8608 32.5196 58.4882 31.7432 58.4882Z" fill="white"></path><path fill-rule="evenodd" clip-rule="evenodd" d="M41.9951 58.4882H37.4395C36.6631 58.4882 36.0332 57.8584 36.0332 57.082C36.0332 56.3057 36.6631 55.6758 37.4395 55.6758H41.9976C42.774 55.6758 43.4038 56.3057 43.4038 57.082C43.4014 57.8608 42.7715 58.4882 41.9951 58.4882Z" fill="white"></path><path fill-rule="evenodd" clip-rule="evenodd" d="M52.2486 58.4882H47.6904C46.9141 58.4882 46.2842 57.8584 46.2842 57.082C46.2842 56.3057 46.9141 55.6758 47.6904 55.6758H52.2486C53.0249 55.6758 53.6548 56.3057 53.6548 57.082C53.6548 57.8608 53.0249 58.4882 52.2486 58.4882Z" fill="white"></path><path fill-rule="evenodd" clip-rule="evenodd" d="M62.5 58.4882H57.9443C57.168 58.4882 56.5381 57.8584 56.5381 57.082C56.5381 56.3057 57.168 55.6758 57.9443 55.6758H62.5025C63.2788 55.6758 63.9087 56.3057 63.9087 57.082C63.9087 57.8584 63.2764 58.4882 62.5 58.4882Z" fill="white"></path><path fill-rule="evenodd" clip-rule="evenodd" d="M72.7544 58.4882H68.1963C67.4199 58.4882 66.79 57.8584 66.79 57.082C66.79 56.3057 67.4199 55.6758 68.1963 55.6758H72.7544C73.5308 55.6758 74.1607 56.3057 74.1607 57.082C74.1607 57.8584 73.5308 58.4882 72.7544 58.4882Z" fill="white"></path><path fill-rule="evenodd" clip-rule="evenodd" d="M72.6936 72.951H27.1856C26.4092 72.951 25.7793 72.3211 25.7793 71.5448V63.039C25.7793 62.2627 26.4092 61.6328 27.1856 61.6328H72.6936C73.4699 61.6328 74.0998 62.2627 74.0998 63.039V71.5448C74.0998 72.3211 73.4699 72.951 72.6936 72.951ZM28.5918 70.1385H71.2873V64.4453H28.5918V70.1385Z" fill="white"></path><path fill-rule="evenodd" clip-rule="evenodd" d="M36.2988 72.8875C35.5225 72.8875 34.8926 72.2577 34.8926 71.4813V63.0976C34.8926 62.3213 35.5225 61.6914 36.2988 61.6914C37.0752 61.6914 37.7051 62.3213 37.7051 63.0976V71.4813C37.7051 72.2601 37.0752 72.8875 36.2988 72.8875Z" fill="white"></path><path fill-rule="evenodd" clip-rule="evenodd" d="M45.4121 72.8875C44.6357 72.8875 44.0059 72.2577 44.0059 71.4813V63.0976C44.0059 62.3213 44.6357 61.6914 45.4121 61.6914C46.1885 61.6914 46.8184 62.3213 46.8184 63.0976V71.4813C46.8184 72.2601 46.1885 72.8875 45.4121 72.8875Z" fill="white"></path><path fill-rule="evenodd" clip-rule="evenodd" d="M54.5264 72.8875C53.75 72.8875 53.1201 72.2577 53.1201 71.4813V63.0976C53.1201 62.3213 53.75 61.6914 54.5264 61.6914C55.3027 61.6914 55.9326 62.3213 55.9326 63.0976V71.4813C55.9326 72.2601 55.3027 72.8875 54.5264 72.8875Z" fill="white"></path><path fill-rule="evenodd" clip-rule="evenodd" d="M63.6397 72.8875C62.8633 72.8875 62.2334 72.2577 62.2334 71.4813V63.0976C62.2334 62.3213 62.8633 61.6914 63.6397 61.6914C64.416 61.6914 65.0459 62.3213 65.0459 63.0976V71.4813C65.0459 72.2601 64.416 72.8875 63.6397 72.8875Z" fill="white"></path><path fill-rule="evenodd" clip-rule="evenodd" d="M21.8702 36.6364C17.0069 36.6364 13.0518 32.6814 13.0518 27.8182C13.0518 22.955 17.0069 19 21.8702 19C26.7335 19 30.6886 22.955 30.6886 27.8182C30.6886 32.6814 26.731 36.6364 21.8702 36.6364ZM21.8702 21.81C18.5572 21.81 15.8643 24.5053 15.8643 27.8158C15.8643 31.1263 18.5596 33.8215 21.8702 33.8215C25.1807 33.8215 27.876 31.1263 27.876 27.8158C27.876 24.5053 25.1807 21.81 21.8702 21.81Z" fill="white"></path><path fill-rule="evenodd" clip-rule="evenodd" d="M21.87 32.1995C20.8568 32.1995 19.8436 31.8138 19.0721 31.0423C18.5228 30.493 18.5228 29.6019 19.0721 29.0526C19.6215 28.5033 20.5126 28.5033 21.0619 29.0526C21.5087 29.4994 22.2362 29.4994 22.683 29.0526C23.2323 28.5033 24.1234 28.5033 24.6728 29.0526C25.2221 29.6019 25.2221 30.493 24.6728 31.0423C23.8964 31.8138 22.8832 32.1995 21.87 32.1995Z" fill="white"></path><path fill-rule="evenodd" clip-rule="evenodd" d="M20.0166 26.6704C19.2402 26.6704 18.6104 26.0405 18.6104 25.2641V25.2031C18.6104 24.4267 19.2402 23.7969 20.0166 23.7969C20.793 23.7969 21.4229 24.4267 21.4229 25.2031V25.2641C21.4229 26.0405 20.793 26.6704 20.0166 26.6704Z" fill="white"></path><path fill-rule="evenodd" clip-rule="evenodd" d="M23.7227 26.6704C22.9463 26.6704 22.3164 26.0405 22.3164 25.2641V25.2031C22.3164 24.4267 22.9463 23.7969 23.7227 23.7969C24.499 23.7969 25.1289 24.4267 25.1289 25.2031V25.2641C25.1289 26.0405 24.499 26.6704 23.7227 26.6704Z" fill="white"></path><path fill-rule="evenodd" clip-rule="evenodd" d="M50.001 36.6364C45.1377 36.6364 41.1826 32.6814 41.1826 27.8182C41.1826 22.955 45.1377 19 50.001 19C54.8643 19 58.8194 22.955 58.8194 27.8182C58.8194 32.679 54.8643 36.6364 50.001 36.6364ZM50.001 21.81C46.688 21.81 43.9951 24.5053 43.9951 27.8158C43.9951 31.1263 46.6905 33.8215 50.001 33.8215C53.3116 33.8215 56.0069 31.1263 56.0069 27.8158C56.0069 24.5053 53.314 21.81 50.001 21.81Z" fill="white"></path><path fill-rule="evenodd" clip-rule="evenodd" d="M51.8046 31.4501C51.4457 31.4501 51.0844 31.3134 50.8109 31.0375C50.3642 30.5908 49.6366 30.5908 49.1898 31.0375C48.6405 31.5869 47.7494 31.5869 47.2001 31.0375C46.6508 30.4882 46.6508 29.5971 47.2001 29.0478C48.7431 27.5049 51.2553 27.5049 52.7982 29.0478C53.3476 29.5971 53.3476 30.4882 52.7982 31.0375C52.5248 31.311 52.1659 31.4501 51.8046 31.4501Z" fill="white"></path><path fill-rule="evenodd" clip-rule="evenodd" d="M48.1475 26.6704C47.3711 26.6704 46.7412 26.0405 46.7412 25.2641V25.2031C46.7412 24.4267 47.3711 23.7969 48.1475 23.7969C48.9238 23.7969 49.5537 24.4267 49.5537 25.2031V25.2641C49.5537 26.0405 48.9238 26.6704 48.1475 26.6704Z" fill="white"></path><path fill-rule="evenodd" clip-rule="evenodd" d="M51.8535 26.6704C51.0772 26.6704 50.4473 26.0405 50.4473 25.2641V25.2031C50.4473 24.4267 51.0772 23.7969 51.8535 23.7969C52.6299 23.7969 53.2598 24.4267 53.2598 25.2031V25.2641C53.2598 26.0405 52.6299 26.6704 51.8535 26.6704Z" fill="white"></path><path fill-rule="evenodd" clip-rule="evenodd" d="M78.0684 36.6364C73.2051 36.6364 69.25 32.6814 69.25 27.8182C69.25 22.955 73.2051 19 78.0684 19C82.9317 19 86.8868 22.955 86.8868 27.8182C86.8868 32.6814 82.9317 36.6364 78.0684 36.6364ZM78.0684 21.81C74.7554 21.81 72.0625 24.5053 72.0625 27.8158C72.0625 31.1263 74.7578 33.8215 78.0684 33.8215C81.379 33.8215 84.0743 31.1263 84.0743 27.8158C84.0743 24.5053 81.3814 21.81 78.0684 21.81Z" fill="white"></path><path fill-rule="evenodd" clip-rule="evenodd" d="M76.2158 26.6704C75.4395 26.6704 74.8096 26.0405 74.8096 25.2641V25.2031C74.8096 24.4267 75.4395 23.7969 76.2158 23.7969C76.9922 23.7969 77.6221 24.4267 77.6221 25.2031V25.2641C77.6221 26.0405 76.9946 26.6704 76.2158 26.6704Z" fill="white"></path><path fill-rule="evenodd" clip-rule="evenodd" d="M79.9238 26.6704C79.1475 26.6704 78.5176 26.0405 78.5176 25.2641V25.2031C78.5176 24.4267 79.1475 23.7969 79.9238 23.7969C80.7002 23.7969 81.3301 24.4267 81.3301 25.2031V25.2641C81.3276 26.0405 80.7002 26.6704 79.9238 26.6704Z" fill="white"></path><path fill-rule="evenodd" clip-rule="evenodd" d="M79.9243 31.4687H76.2793C75.5029 31.4687 74.873 30.8388 74.873 30.0625C74.873 29.2861 75.5029 28.6562 76.2793 28.6562H79.9243C80.7007 28.6562 81.3306 29.2861 81.3306 30.0625C81.3281 30.8388 80.7007 31.4687 79.9243 31.4687Z" fill="white"></path><path fill-rule="evenodd" clip-rule="evenodd" d="M19.4971 52.3546H6.40626C5.62989 52.3546 5 51.7247 5 50.9483V27.8164C5 27.04 5.62989 26.4102 6.40626 26.4102H14.3042C15.0806 26.4102 15.7105 27.04 15.7105 27.8164C15.7105 28.5927 15.0806 29.2226 14.3042 29.2226H7.81251V49.5446H19.4971C20.2735 49.5446 20.9034 50.1744 20.9034 50.9508C20.9034 51.7271 20.2759 52.3546 19.4971 52.3546Z" fill="white"></path><path fill-rule="evenodd" clip-rule="evenodd" d="M93.5933 52.357H80.5147C79.7383 52.357 79.1084 51.7271 79.1084 50.9508C79.1084 50.1744 79.7383 49.5446 80.5147 49.5446H92.1871V29.2226H85.6783C84.9019 29.2226 84.272 28.5927 84.272 27.8164C84.272 27.04 84.9019 26.4102 85.6783 26.4102H93.5933C94.3697 26.4102 94.9996 27.04 94.9996 27.8164V50.9508C94.9996 51.7271 94.3697 52.357 93.5933 52.357Z" fill="white"></path><path fill-rule="evenodd" clip-rule="evenodd" d="M49.9707 44.5682C49.1943 44.5682 48.5645 43.9481 48.5645 43.1815V35.2812C48.5645 34.5146 49.1943 33.8945 49.9707 33.8945C50.7471 33.8945 51.377 34.5146 51.377 35.2812V43.1815C51.377 43.9481 50.7471 44.5682 49.9707 44.5682Z" fill="white"></path></svg>