<svg xmlns="http://www.w3.org/2000/svg" viewBox="0 0 64 64" fill="none">
  <!-- Speed/acceleration arrows -->
  <path d="M8 32L24 24L20 32L24 40L8 32Z" fill="white"/>
  <path d="M20 32L36 24L32 32L36 40L20 32Z" fill="white" opacity="0.8"/>
  <path d="M32 32L48 24L44 32L48 40L32 32Z" fill="white" opacity="0.6"/>
  
  <!-- Process workflow boxes -->
  <rect x="50" y="20" width="8" height="8" rx="2" fill="white"/>
  <rect x="50" y="32" width="8" height="8" rx="2" fill="white"/>
  <rect x="50" y="44" width="8" height="8" rx="2" fill="white"/>
  
  <!-- Connection lines showing process flow -->
  <path d="M48 24L50 24M48 36L50 36M48 48L50 48" stroke="white" stroke-width="2"/>
  
  <!-- Speed lines -->
  <path d="M4 28L12 28M4 32L12 32M4 36L12 36" stroke="white" stroke-width="1.5" opacity="0.7"/>
  <path d="M2 24L8 24M2 40L8 40" stroke="white" stroke-width="1" opacity="0.5"/>
</svg>