<svg xmlns="http://www.w3.org/2000/svg" width="100" height="100" viewBox="0 0 100 100" fill="none"><path d="M68.1566 47.2216H78.2051C79.525 47.2216 80.7263 46.6807 81.5973 45.8095C82.4685 44.9385 83.0094 43.7372 83.0094 42.4173V36.5634C83.0094 35.2433 82.4685 34.042 81.5973 33.171C80.7263 32.2998 79.5252 31.7589 78.2051 31.7589H57.546C56.2259 31.7589 55.0248 32.2998 54.1538 33.171C53.2826 34.042 52.7416 35.2433 52.7416 36.5634V42.4173C52.7416 43.7371 53.2826 44.9381 54.1538 45.8095C55.0251 46.6807 56.226 47.2216 57.546 47.2216H60.2977C60.864 47.2216 61.3231 47.6807 61.3231 48.247C61.3231 48.3201 61.3155 48.3915 61.3008 48.4605L60.7085 52.8764L67.5197 47.4459C67.7081 47.296 67.9331 47.2235 68.1566 47.2237L68.1566 47.2216ZM59.1894 40.5157C58.6231 40.5157 58.164 40.0566 58.164 39.4903C58.164 38.924 58.6231 38.4649 59.1894 38.4649H76.5619C77.1282 38.4649 77.5873 38.924 77.5873 39.4903C77.5873 40.0566 77.1282 40.5157 76.5619 40.5157H59.1894ZM31.1963 50.716C33.6318 50.7202 35.835 51.711 37.427 53.3086C39.0182 54.9054 40.0005 57.1103 39.9963 59.5433C39.9919 61.9788 39.0013 64.1821 37.4037 65.7741C35.807 67.3653 33.6022 68.3476 31.1691 68.3434C28.7336 68.3392 26.5302 67.3483 24.9382 65.7508C23.347 64.154 22.3646 61.9493 22.3689 59.5161C22.3731 57.0807 23.3636 54.8775 24.9615 53.2853C26.5582 51.6941 28.763 50.7118 31.1963 50.716ZM35.9769 54.7506C34.848 53.6178 33.3211 52.8821 31.6247 52.7729V66.2862C33.3128 66.1767 34.8341 65.4478 35.9617 64.324C37.189 63.101 37.9503 61.4103 37.9536 59.5433C37.9566 57.674 37.2009 55.9789 35.9769 54.7506ZM29.574 52.9517C28.355 53.2495 27.2645 53.8773 26.4035 54.7354C25.1759 55.9586 24.4147 57.6493 24.4116 59.5161C24.4084 61.3854 25.1643 63.0804 26.3883 64.3088C27.2516 65.175 28.3475 65.8091 29.574 66.1083V52.9517ZM17.9644 49.8623L21.4548 46.3843C21.843 45.9984 22.4637 45.9884 22.8639 46.3532L22.8647 46.3524L24.9603 48.2633C25.3543 48.0451 25.761 47.8473 26.1781 47.6712C26.5994 47.4934 27.0284 47.3377 27.4639 47.2056L27.6034 44.3216C27.6299 43.7576 28.1089 43.3219 28.6729 43.3484L28.6744 43.3485L29.574 43.3501V22.1939V16.0254C29.574 15.4591 30.033 15 30.5994 15H69.0889C69.6552 15 70.1142 15.4591 70.1142 16.0254V22.1204C70.116 22.1446 70.1168 22.1692 70.1168 22.1939C70.1168 22.2186 70.116 22.2431 70.1142 22.2674V29.7081H78.2052C80.0916 29.7081 81.8056 30.479 83.0474 31.721C84.2894 32.9627 85.0602 34.677 85.0602 36.5634V42.4173C85.0602 44.3036 84.2894 46.0178 83.0474 47.2596C81.8056 48.5015 80.0914 49.2724 78.2052 49.2724H70.1142V78.5644V83.9746C70.1142 84.5409 69.6552 85 69.0889 85H30.5994C30.033 85 29.574 84.5409 29.574 83.9746V78.5644V75.704L28.7687 75.7025C28.2195 75.7025 27.7714 75.269 27.7483 74.7253H27.7473L27.617 71.8974C27.1755 71.7713 26.7486 71.6241 26.3374 71.4569C25.9168 71.2859 25.5036 71.0907 25.0999 70.8729L22.9603 72.8151C22.5425 73.1954 21.8958 73.1651 21.5152 72.7478L18.0371 69.2576C17.6512 68.8694 17.6412 68.2487 18.0059 67.8485L18.0051 67.8477L19.9161 65.7519C19.6979 65.3576 19.5001 64.951 19.3239 64.5337C19.1461 64.1126 18.9908 63.6837 18.8587 63.2483L15.9744 63.1088C15.4103 63.0823 14.9747 62.6034 15.0011 62.0393L15.0013 62.0379L15.0097 57.116C15.0097 56.5668 15.4433 56.1187 15.987 56.0956V56.0947L18.8148 55.9643C18.9407 55.5233 19.088 55.0966 19.2551 54.6856C19.4263 54.2646 19.6215 53.8514 19.8395 53.4472L17.8971 51.3076C17.5168 50.8899 17.5472 50.2429 17.9644 49.8623ZM31.6248 43.3535L33.5964 43.3569C34.1456 43.3569 34.5937 43.7905 34.6168 44.3342H34.6178L34.7483 47.162C35.1897 47.2881 35.6167 47.4354 36.0278 47.6025C36.4485 47.7735 36.8617 47.9688 37.2654 48.1866L39.4048 46.2443C39.8226 45.864 40.4695 45.8944 40.8501 46.3117L44.328 49.802C44.7139 50.1902 44.7239 50.8109 44.3592 51.2111L44.36 51.2119L42.449 53.3077C42.6672 53.7021 42.8652 54.1087 43.0413 54.5259C43.2191 54.9469 43.3746 55.3761 43.5066 55.8111L46.3907 55.9506C46.9548 55.9771 47.3905 56.4561 47.364 57.0201L47.3638 57.0214L47.3556 61.9434C47.3556 62.4926 46.922 62.9407 46.3783 62.9638V62.9648L43.5505 63.0951C43.4244 63.5364 43.2771 63.9635 43.1098 64.3748C42.9388 64.7957 42.7436 65.2087 42.5259 65.6124L44.468 67.7519C44.8483 68.1696 44.8179 68.8165 44.4007 69.1971L40.9103 72.675C40.5221 73.0609 39.9014 73.071 39.5013 72.7062L39.5004 72.707L37.4046 70.7961C37.0104 71.014 36.604 71.212 36.1868 71.3882C35.7656 71.566 35.3366 71.7217 34.9012 71.8536L34.7617 74.7378C34.7352 75.3018 34.2563 75.7375 33.6922 75.711L33.6908 75.7108L31.6248 75.7073V77.5389H68.0634V49.6302L59.9937 56.0642L59.9932 56.0636C59.7831 56.2305 59.5078 56.315 59.2207 56.2765C58.661 56.2015 58.2683 55.6867 58.3434 55.127L59.1285 49.2724H57.546C55.6598 49.2724 53.9457 48.5012 52.7037 47.2596C51.4621 46.0176 50.6909 44.3034 50.6909 42.4173V36.5634C50.6909 34.677 51.4618 32.9627 52.7037 31.721C53.9455 30.479 55.6596 29.7081 57.546 29.7081H68.0634V23.2183L57.6337 23.2499C57.6028 23.2527 57.5718 23.2543 57.5403 23.2543C56.974 23.2543 56.5149 22.7952 56.5149 22.2289V21.8806L43.1737 21.8788L43.1703 22.1189C43.1721 22.1436 43.173 22.1687 43.173 22.1939C43.173 22.7602 42.714 23.2193 42.1477 23.2193H31.6247L31.6248 43.3535ZM22.2064 48.5223L20.0681 50.6532L21.855 52.6216L21.8537 52.6227C22.1529 52.9512 22.2122 53.4505 21.9672 53.8472C21.6581 54.3477 21.3852 54.8851 21.1538 55.4544C20.9305 56.0039 20.7524 56.5644 20.6243 57.1307C20.5422 57.5919 20.1494 57.9509 19.6621 57.9719L17.0508 58.0922L17.0455 61.1131L19.644 61.2389C20.1131 61.2344 20.5394 61.5548 20.6502 62.0307C20.7916 62.6289 20.9785 63.2004 21.2065 63.7404C21.4329 64.2768 21.7011 64.7906 22.0066 65.2773C22.2897 65.662 22.2722 66.2054 21.9385 66.5721L20.1753 68.5058L22.3061 70.6443L24.2747 68.8572L24.2759 68.8585C24.6043 68.5592 25.1036 68.5 25.5004 68.7449C26.0005 69.0542 26.5377 69.3269 27.1064 69.5582C27.6563 69.7815 28.2171 69.9598 28.7836 70.0878C29.2447 70.17 29.6037 70.5627 29.6247 71.0501L29.745 73.6613L32.7661 73.6667L32.8919 71.0683C32.8874 70.5992 33.2078 70.1729 33.6836 70.0621C34.2819 69.9207 34.8535 69.7337 35.3935 69.5057C35.9296 69.2791 36.4436 69.0111 36.9298 68.7059C37.3145 68.4226 37.858 68.4397 38.2249 68.7737L40.1588 70.537L42.2971 68.406L40.5103 66.4377L40.5116 66.4366C40.2124 66.1082 40.1531 65.6089 40.3981 65.2121C40.7073 64.7119 40.9801 64.1748 41.2111 63.6059C41.4346 63.0562 41.6129 62.4951 41.7409 61.9286C41.8231 61.4674 42.2159 61.1085 42.7032 61.0875L45.3145 60.9672L45.3196 57.9462L42.7213 57.8204C42.2522 57.8249 41.8259 57.5046 41.7151 57.0287C41.5736 56.4306 41.3867 55.8589 41.1588 55.3191C40.9323 54.7828 40.6642 54.2689 40.3585 53.7822C40.0754 53.3975 40.0929 52.8541 40.4267 52.4874L42.19 50.5535L40.059 48.4152L38.0905 50.2022L38.0894 50.2009C37.761 50.5001 37.2617 50.5594 36.8649 50.3144C36.3648 50.0052 35.8276 49.7324 35.2589 49.5012C34.709 49.2779 34.1482 49.0996 33.5817 48.9715C33.1206 48.8893 32.7616 48.4966 32.7406 48.0093L32.6201 45.398L29.599 45.3927L29.4734 47.991C29.4779 48.4601 29.1575 48.8864 28.6817 48.9972C28.0831 49.1387 27.5113 49.3257 26.9713 49.5537C26.4352 49.7801 25.9215 50.0481 25.435 50.3538C25.0503 50.6369 24.5069 50.6194 24.1402 50.2857L22.2064 48.5223ZM21.5152 72.7478L21.5144 72.7469L21.5152 72.7478ZM31.6248 79.5897V82.9492H68.0634V79.5897H31.6248ZM31.6248 21.1685H41.1409L41.1456 20.8454C41.152 20.2854 41.6082 19.836 42.1669 19.836H42.1789L57.5403 19.8381C58.1044 19.8381 58.5617 20.2954 58.5617 20.8594H58.5657V21.2045L68.0634 21.1756V17.0508H31.6248L31.6248 21.1685Z" fill="white"></path><path fill-rule="evenodd" clip-rule="evenodd" d="M17.9644 49.8627L21.4548 46.3848C21.843 45.9988 22.4637 45.9888 22.8639 46.3536L22.8647 46.3528L24.9603 48.2637C25.3543 48.0456 25.761 47.8478 26.1781 47.6716C26.5994 47.4938 27.0284 47.3381 27.4639 47.206L27.6034 44.322C27.6299 43.758 28.1089 43.3223 28.6729 43.3488L28.6744 43.349L29.574 43.3506L31.6248 43.354L33.5964 43.3574C34.1456 43.3574 34.5937 43.7909 34.6168 44.3346H34.6178L34.7483 47.1624C35.1897 47.2886 35.6167 47.4358 36.0278 47.603C36.4485 47.774 36.8617 47.9692 37.2654 48.187L39.4048 46.2448C39.8226 45.8645 40.4695 45.8948 40.8501 46.3121L44.328 49.8025C44.7139 50.1907 44.7239 50.8114 44.3592 51.2115L44.36 51.2123L42.449 53.3082C42.6672 53.7025 42.8652 54.1091 43.0413 54.5264C43.2191 54.9473 43.3746 55.3765 43.5066 55.8116L46.3907 55.9511C46.9548 55.9776 47.3905 56.4565 47.364 57.0206L47.3638 57.0218L47.3556 61.9439C47.3556 62.4931 46.922 62.9412 46.3783 62.9643V62.9652L43.5505 63.0956C43.4244 63.5369 43.2771 63.964 43.1098 64.3753C42.9388 64.7961 42.7436 65.2091 42.5259 65.6128L44.468 67.7523C44.8483 68.17 44.8179 68.8169 44.4007 69.1975L40.9103 72.6754C40.5221 73.0614 39.9014 73.0714 39.5013 72.7066L39.5004 72.7074L37.4046 70.7965C37.0104 71.0145 36.604 71.2125 36.1868 71.3886C35.7656 71.5664 35.3366 71.7221 34.9012 71.854L34.7617 74.7382C34.7352 75.3022 34.2563 75.7379 33.6922 75.7114L33.6908 75.7113L31.6248 75.7077L29.574 75.7044L28.7687 75.703C28.2195 75.703 27.7714 75.2694 27.7483 74.7257H27.7473L27.617 71.8979C27.1755 71.7718 26.7486 71.6245 26.3374 71.4574C25.9168 71.2864 25.5036 71.0911 25.0999 70.8733L22.9603 72.8156C22.5425 73.1959 21.8958 73.1655 21.5152 72.7482L18.0371 69.258C17.6512 68.8698 17.6412 68.2491 18.0059 67.849L18.0051 67.8482L19.9161 65.7523C19.6979 65.358 19.5001 64.9514 19.3239 64.5341C19.1461 64.113 18.9908 63.6841 18.8587 63.2488L15.9744 63.1092C15.4103 63.0828 14.9747 62.6038 15.0011 62.0398L15.0013 62.0383L15.0097 57.1164C15.0097 56.5673 15.4433 56.1192 15.987 56.0961V56.0951L18.8148 55.9648C18.9407 55.5238 19.088 55.097 19.2551 54.686C19.4263 54.265 19.6215 53.8518 19.8395 53.4476L17.8971 51.3081C17.5168 50.8903 17.5472 50.2433 17.9644 49.8627ZM20.0681 50.6536L22.2064 48.5227L24.1402 50.2861C24.5069 50.6199 25.0503 50.6373 25.435 50.3542C25.9215 50.0485 26.4352 49.7805 26.9713 49.5541C27.5113 49.3261 28.0831 49.1391 28.6817 48.9976C29.1575 48.8869 29.4779 48.4606 29.4734 47.9915L29.599 45.3931L32.6201 45.3984L32.7406 48.0097C32.7616 48.4971 33.1206 48.8898 33.5817 48.972C34.1482 49.1 34.709 49.2783 35.2589 49.5016C35.8276 49.7329 36.3648 50.0056 36.8649 50.3148C37.2617 50.5598 37.761 50.5005 38.0894 50.2013L38.0905 50.2026L40.059 48.4157L42.19 50.554L40.4267 52.4879C40.0929 52.8546 40.0754 53.398 40.3585 53.7826C40.6642 54.2693 40.9323 54.7833 41.1588 55.3195C41.3867 55.8594 41.5736 56.431 41.7151 57.0291C41.8259 57.505 42.2522 57.8254 42.7213 57.8209L45.3196 57.9466L45.3145 60.9676L42.7032 61.0879C42.2159 61.1089 41.8231 61.4679 41.7409 61.929C41.6129 62.4955 41.4346 63.0566 41.2111 63.6063C40.9801 64.1752 40.7073 64.7123 40.3981 65.2125C40.1531 65.6093 40.2124 66.1086 40.5116 66.437L40.5103 66.4382L42.2971 68.4064L40.1588 70.5375L38.2249 68.7741C37.858 68.4402 37.3145 68.4231 36.9298 68.7063C36.4436 69.0115 35.9296 69.2795 35.3935 69.5061C34.8535 69.7341 34.2819 69.9211 33.6836 70.0626C33.2078 70.1733 32.8874 70.5996 32.8919 71.0687L32.7661 73.6671L29.745 73.6618L29.6247 71.0505C29.6037 70.5631 29.2447 70.1704 28.7836 70.0882C28.2171 69.9602 27.6563 69.7819 27.1064 69.5586C26.5377 69.3274 26.0005 69.0546 25.5004 68.7454C25.1036 68.5004 24.6043 68.5597 24.2759 68.8589L24.2747 68.8576L22.3061 70.6447L20.1753 68.5062L21.9385 66.5725C22.2722 66.2058 22.2897 65.6624 22.0066 65.2778C21.7011 64.7911 21.4329 64.2773 21.2065 63.7408C20.9785 63.2008 20.7916 62.6294 20.6502 62.0311C20.5394 61.5552 20.1131 61.2348 19.644 61.2394L17.0455 61.1136L17.0508 58.0926L19.6621 57.9723C20.1494 57.9513 20.5422 57.5924 20.6243 57.1312C20.7524 56.5649 20.9305 56.0044 21.1538 55.4549C21.3852 54.8855 21.6581 54.3481 21.9672 53.8477C22.2122 53.4509 22.1529 52.9516 21.8537 52.6232L21.855 52.622L20.0681 50.6536Z" fill="white"></path><path d="M58.1641 39.4902C58.1641 40.0565 58.6231 40.5156 59.1895 40.5156H76.562C77.1283 40.5156 77.5874 40.0565 77.5874 39.4902C77.5874 38.9239 77.1283 38.4648 76.562 38.4648H59.1895C58.6231 38.4648 58.1641 38.9239 58.1641 39.4902Z" fill="white"></path></svg>