<svg xmlns="http://www.w3.org/2000/svg" width="100" height="100" viewBox="0 0 100 100" fill="none"><path d="M74.6333 28.8833L65.3 16.4C64.6 15.4667 63.55 15 62.5 15H27.5C25.5167 15 24 16.5167 24 18.5V81.5C24 83.4833 25.5167 85 27.5 85H71.8333C73.8167 85 75.3333 83.4833 75.3333 81.5V30.9833C75.3333 30.1667 75.1 29.4667 74.6333 28.8833ZM64.8333 19.6667L71.8333 29H66C65.3 29 64.8333 28.5333 64.8333 27.8333V19.6667ZM71.8333 82.6667H27.5C26.8 82.6667 26.3333 82.2 26.3333 81.5V18.5C26.3333 17.8 26.8 17.3333 27.5 17.3333H62.5V27.8333C62.5 29.8167 64.0167 31.3333 66 31.3333H73V81.5C73 82.2 72.5333 82.6667 71.8333 82.6667Z" fill="white"></path><path d="M36.8337 36.0013C41.3837 36.0013 45.0003 32.3846 45.0003 27.8346C45.0003 23.2846 41.3837 19.668 36.8337 19.668C32.2837 19.668 28.667 23.2846 28.667 27.8346C28.667 32.3846 32.2837 36.0013 36.8337 36.0013ZM41.7337 31.1013L38.467 27.8346L41.7337 24.568C42.317 25.5013 42.667 26.668 42.667 27.8346C42.667 29.0013 42.317 30.168 41.7337 31.1013ZM36.8337 22.0013C38.0003 22.0013 39.167 22.3513 40.1003 22.9346L35.2003 27.8346L40.1003 32.7346C39.167 33.318 38.0003 33.668 36.8337 33.668C33.567 33.668 31.0003 31.1013 31.0003 27.8346C31.0003 24.568 33.567 22.0013 36.8337 22.0013Z" fill="white"></path><path d="M70.667 40.332H28.667V42.6654H70.667V40.332Z" fill="white"></path><path d="M70.667 76.668H28.667V79.0013H70.667V76.668Z" fill="white"></path><path d="M28.667 72.668H70.667V46.668H28.667V72.668ZM31.0003 49.0013H68.3337V70.3346H31.0003V49.0013Z" fill="white"></path><path d="M35.6663 52.332H33.333V54.6654H35.6663V52.332Z" fill="white"></path><path d="M66 52.332H38V54.6654H66V52.332Z" fill="white"></path><path d="M35.6663 58.6641H33.333V60.9974H35.6663V58.6641Z" fill="white"></path><path d="M66 58.6641H38V60.9974H66V58.6641Z" fill="white"></path><path d="M35.6663 64.9961H33.333V67.3294H35.6663V64.9961Z" fill="white"></path><path d="M66 64.9961H38V67.3294H66V64.9961Z" fill="white"></path><path d="M60.1663 20.668H47.333V23.0013H60.1663V20.668Z" fill="white"></path><path d="M60.1663 27H47.333V29.3333H60.1663V27Z" fill="white"></path><path d="M70.6663 33H47.333V35.3333H70.6663V33Z" fill="white"></path></svg>