<svg xmlns="http://www.w3.org/2000/svg" viewBox="0 0 64 64" fill="none">
  <!-- Central puzzle piece representing custom fit -->
  <path d="M28 20L36 20C38 20 40 22 40 24L40 28C42 28 44 30 44 32C44 34 42 36 40 36L40 40C40 42 38 44 36 44L28 44C26 44 24 42 24 40L24 36C22 36 20 34 20 32C20 30 22 28 24 28L24 24C24 22 26 20 28 20Z" fill="white"/>
  
  <!-- Surrounding puzzle pieces showing integration -->
  <path d="M12 16L20 16C21 16 22 17 22 18L22 22C22 23 21 24 20 24L12 24C11 24 10 23 10 22L10 18C10 17 11 16 12 16Z" fill="white" opacity="0.7"/>
  <path d="M44 16L52 16C53 16 54 17 54 18L54 22C54 23 53 24 52 24L44 24C43 24 42 23 42 22L42 18C42 17 43 16 44 16Z" fill="white" opacity="0.7"/>
  <path d="M12 40L20 40C21 40 22 41 22 42L22 46C22 47 21 48 20 48L12 48C11 48 10 47 10 46L10 42C10 41 11 40 12 40Z" fill="white" opacity="0.7"/>
  <path d="M44 40L52 40C53 40 54 41 54 42L54 46C54 47 53 48 52 48L44 48C43 48 42 47 42 46L42 42C42 41 43 40 44 40Z" fill="white" opacity="0.7"/>
  
  <!-- Connection indicators -->
  <circle cx="32" cy="12" r="2" fill="white" opacity="0.8"/>
  <circle cx="32" cy="52" r="2" fill="white" opacity="0.8"/>
  <circle cx="12" cy="32" r="2" fill="white" opacity="0.8"/>
  <circle cx="52" cy="32" r="2" fill="white" opacity="0.8"/>
  
  <!-- Custom tailoring symbol in center -->
  <path d="M28 28L36 28M28 32L36 32M28 36L36 36" stroke="white" stroke-width="1" opacity="0.6"/>
</svg>