<svg xmlns="http://www.w3.org/2000/svg" viewBox="0 0 64 64" fill="none">
  <path d="M8 48L16 40L24 44L32 36L40 40L48 32L56 36" stroke="white" stroke-width="3" fill="none"/>
  <circle cx="16" cy="40" r="3" fill="white"/>
  <circle cx="24" cy="44" r="3" fill="white"/>
  <circle cx="32" cy="36" r="3" fill="white"/>
  <circle cx="40" cy="40" r="3" fill="white"/>
  <circle cx="48" cy="32" r="3" fill="white"/>
  <circle cx="56" cy="36" r="3" fill="white"/>
  <path d="M48 16L52 8L60 12L56 20L48 16Z" fill="white"/>
  <path d="M50 18L58 14" stroke="white" stroke-width="1"/>
  <path d="M52 20L56 12" stroke="white" stroke-width="1"/>
  <rect x="4" y="52" width="56" height="2" fill="white"/>
  <rect x="4" y="50" width="2" height="4" fill="white"/>
  <rect x="58" y="50" width="2" height="4" fill="white"/>
  <path d="M12 52L12 46M20 52L20 42M28 52L28 38M36 52L36 34M44 52L44 30M52 52L52 26" stroke="white" stroke-width="1" opacity="0.6"/>
</svg>