<svg xmlns="http://www.w3.org/2000/svg" viewBox="0 0 64 64" fill="none">
  <!-- Magnifying glass for discovery -->
  <circle cx="24" cy="24" r="16" stroke="white" stroke-width="3" fill="none"/>
  <circle cx="24" cy="24" r="10" stroke="white" stroke-width="1.5" fill="none" opacity="0.6"/>
  <path d="36 36L50 50" stroke="white" stroke-width="4" stroke-linecap="round"/>
  <circle cx="52" cy="52" r="4" fill="white"/>
  
  <!-- Business opportunities - lightbulb inside magnifying glass -->
  <path d="M24 16L26 20L22 20L24 16Z" fill="white"/>
  <rect x="22" y="20" width="4" height="6" rx="1" fill="white"/>
  <rect x="21" y="26" width="6" height="2" rx="1" fill="white"/>
  <rect x="21" y="28" width="6" height="1" fill="white" opacity="0.7"/>
  
  <!-- Scattered opportunity dots/prospects -->
  <circle cx="12" cy="12" r="2" fill="white" opacity="0.8"/>
  <circle cx="48" cy="16" r="2" fill="white" opacity="0.8"/>
  <circle cx="8" cy="32" r="2" fill="white" opacity="0.8"/>
  <circle cx="56" cy="32" r="2" fill="white" opacity="0.8"/>
  <circle cx="16" cy="48" r="2" fill="white" opacity="0.8"/>
  
  <!-- Connection lines showing prospect identification -->
  <path d="M12 12L20 20M48 16L36 24M8 32L16 28M56 32L44 28M16 48L20 40" stroke="white" stroke-width="1" opacity="0.4"/>
</svg>