<svg xmlns="http://www.w3.org/2000/svg" width="100" height="100" viewBox="0 0 100 100" fill="none"><path d="M38.855 50.7156C38.824 50.6645 38.7902 50.6152 38.7539 50.5678L38.6528 50.4589L38.5439 50.3578L38.3961 50.2567L38.3339 50.1867L38.1784 50.1167L38.0461 50.0622H37.9684L37.665 50H37.3461C37.2644 50.0117 37.1838 50.0299 37.105 50.0544H37.035C36.965 50.0544 36.895 50.1089 36.825 50.1478L36.755 50.2022C36.6945 50.2357 36.6372 50.2748 36.5839 50.3189C36.549 50.346 36.5177 50.3773 36.4906 50.4122L36.3661 50.5289L36.2728 50.6767L36.2028 50.77L26.8695 67.8811C26.7709 68.0608 26.7088 68.2581 26.6868 68.4618C26.6647 68.6655 26.6831 68.8716 26.7409 69.0682C26.7988 69.2648 26.8948 69.448 27.0237 69.6073C27.1525 69.7667 27.3116 69.899 27.4917 69.9967C27.7137 70.1295 27.9645 70.2069 28.2228 70.2222C28.4995 70.2261 28.7723 70.156 29.0129 70.0193C29.2535 69.8826 29.4533 69.6841 29.5917 69.4444L32.9672 63.2222H42.145L45.5206 69.4444C45.6589 69.6841 45.8587 69.8826 46.0994 70.0193C46.34 70.156 46.6127 70.2261 46.8895 70.2222C47.1603 70.2264 47.4278 70.1622 47.6672 70.0356C47.8474 69.9379 48.0064 69.8056 48.1352 69.6462C48.2641 69.4869 48.3602 69.3037 48.418 69.1071C48.4758 68.9105 48.4942 68.7044 48.4722 68.5007C48.4501 68.297 48.388 68.0997 48.2895 67.92L38.9561 50.8089L38.855 50.7156ZM34.6628 60.1111L37.5561 54.8067L40.4495 60.1111H34.6628Z" fill="white"></path><path d="M80.3333 15H44.5556C43.3179 15 42.1309 15.4917 41.2557 16.3668C40.3806 17.242 39.8889 18.429 39.8889 19.6667V42.2222H19.6667C18.429 42.2222 17.242 42.7139 16.3668 43.5891C15.4917 44.4642 15 45.6512 15 46.8889V73.3333C15 74.571 15.4917 75.758 16.3668 76.6332C17.242 77.5083 18.429 78 19.6667 78H23.5556V83.4444C23.5558 83.7498 23.6459 84.0483 23.8146 84.3028C23.9834 84.5573 24.2233 84.7565 24.5044 84.8756C24.6963 84.9573 24.9026 84.9996 25.1111 85C25.5143 85.0004 25.9019 84.8443 26.1922 84.5644L32.9822 78H55.4444C56.6821 78 57.8691 77.5083 58.7443 76.6332C59.6194 75.758 60.1111 74.571 60.1111 73.3333V50.7778H67.0178L73.8078 57.3422C74.0981 57.622 74.4857 57.7782 74.8889 57.7778C75.0974 57.7774 75.3037 57.7351 75.4956 57.6533C75.7767 57.5343 76.0166 57.3351 76.1854 57.0806C76.3541 56.8261 76.4442 56.5276 76.4444 56.2222V50.7778H80.3333C81.571 50.7778 82.758 50.2861 83.6332 49.4109C84.5083 48.5358 85 47.3488 85 46.1111V19.6667C85 18.429 84.5083 17.242 83.6332 16.3668C82.758 15.4917 81.571 15 80.3333 15ZM57 73.3333C57 73.7459 56.8361 74.1416 56.5444 74.4333C56.2527 74.725 55.857 74.8889 55.4444 74.8889H32.3522C31.949 74.8885 31.5614 75.0446 31.2711 75.3244L26.6667 79.7733V76.4444C26.6667 76.0319 26.5028 75.6362 26.2111 75.3445C25.9193 75.0528 25.5237 74.8889 25.1111 74.8889H19.6667C19.2541 74.8889 18.8584 74.725 18.5667 74.4333C18.275 74.1416 18.1111 73.7459 18.1111 73.3333V46.8889C18.1111 46.4763 18.275 46.0807 18.5667 45.7889C18.8584 45.4972 19.2541 45.3333 19.6667 45.3333H39.8889V46.1111C39.8889 47.3488 40.3806 48.5358 41.2557 49.4109C42.1309 50.2861 43.3179 50.7778 44.5556 50.7778H57V73.3333ZM81.8889 46.1111C81.8889 46.5237 81.725 46.9193 81.4333 47.2111C81.1416 47.5028 80.7459 47.6667 80.3333 47.6667H74.8889C74.4763 47.6667 74.0807 47.8306 73.7889 48.1223C73.4972 48.414 73.3333 48.8097 73.3333 49.2222V52.5511L68.7289 48.1022C68.4386 47.8224 68.051 47.6663 67.6478 47.6667H44.5556C44.143 47.6667 43.7473 47.5028 43.4556 47.2111C43.1639 46.9193 43 46.5237 43 46.1111V19.6667C43 19.2541 43.1639 18.8584 43.4556 18.5667C43.7473 18.275 44.143 18.1111 44.5556 18.1111H80.3333C80.7459 18.1111 81.1416 18.275 81.4333 18.5667C81.725 18.8584 81.8889 19.2541 81.8889 19.6667V46.1111Z" fill="white"></path><path d="M71.7779 26.6662H64.0001V24.3329C64.0001 23.9203 63.8362 23.5247 63.5445 23.233C63.2528 22.9412 62.8571 22.7773 62.4446 22.7773C62.032 22.7773 61.6363 22.9412 61.3446 23.233C61.0529 23.5247 60.889 23.9203 60.889 24.3329V26.6662H53.1112C52.6987 26.6662 52.303 26.8301 52.0113 27.1218C51.7196 27.4136 51.5557 27.8092 51.5557 28.2218C51.5557 28.6343 51.7196 29.03 52.0113 29.3217C52.303 29.6135 52.6987 29.7773 53.1112 29.7773H57.7079C58.0678 31.4078 58.657 32.9789 59.4579 34.444C59.7544 34.9809 60.0816 35.5003 60.4379 35.9996C58.498 37.9164 56.0814 39.2804 53.4379 39.9507C53.0398 40.0621 52.7022 40.327 52.4995 40.6873C52.2967 41.0476 52.2454 41.4737 52.3568 41.8718C52.4682 42.2699 52.7331 42.6075 53.0934 42.8102C53.4537 43.013 53.8798 43.0643 54.2779 42.9529C57.3555 42.1491 60.1703 40.5567 62.4446 38.3329C64.7205 40.5357 67.5248 42.1159 70.5879 42.9218C70.785 42.9769 70.9911 42.9927 71.1943 42.9683C71.3975 42.9438 71.594 42.8795 71.7724 42.7791C71.9507 42.6787 72.1076 42.5442 72.234 42.3832C72.3604 42.2221 72.4538 42.0378 72.509 41.8407C72.5642 41.6435 72.5799 41.4375 72.5555 41.2343C72.531 41.031 72.4667 40.8346 72.3663 40.6562C72.2659 40.4778 72.1314 40.321 71.9704 40.1946C71.8094 40.0682 71.625 39.9747 71.4279 39.9196C68.783 39.2398 66.3669 37.868 64.4279 35.9451C65.7222 34.0609 66.6509 31.9502 67.1657 29.7229H71.7779C72.1904 29.7229 72.5861 29.559 72.8778 29.2673C73.1696 28.9756 73.3334 28.5799 73.3334 28.1673C73.3334 27.7548 73.1696 27.3591 72.8778 27.0674C72.5861 26.7757 72.1904 26.6118 71.7779 26.6118V26.6662ZM62.4446 33.4018C61.7631 32.2703 61.2397 31.0508 60.889 29.7773H64.0001C63.6494 31.0508 63.126 32.2703 62.4446 33.4018Z" fill="white"></path></svg>