<svg xmlns="http://www.w3.org/2000/svg" width="100" height="100" viewBox="0 0 100 100" fill="none"><path d="M40.0171 48.9073C38.2605 48.9073 36.7534 49.9541 36.0577 51.4503C35.4551 50.9505 34.8109 50.4922 34.0955 50.1225C33.5585 49.8436 32.8979 50.0547 32.6212 50.5917C32.3445 51.1277 32.5534 51.7883 33.0915 52.065C36.014 53.5755 37.8296 56.5559 37.8296 59.8438C37.8296 60.4475 38.3185 60.9375 38.9234 60.9375C39.5282 60.9375 40.0171 60.4475 40.0171 59.8438C40.0171 57.4277 39.2154 55.1548 37.8263 53.2998C37.8263 53.2933 37.8296 53.2878 37.8296 53.2812C37.8296 52.0748 38.8107 51.0938 40.0171 51.0938C40.622 51.0938 41.1109 50.6037 41.1109 50C41.1109 49.3963 40.622 48.9073 40.0171 48.9073Z" fill="white"></path><path d="M80.625 45.625C78.5917 45.625 76.8942 47.025 76.4053 48.9062H51.0938V40.1562H63.125C63.5395 40.1562 63.918 39.9222 64.1039 39.5514L65.9895 35.7812H69.8439C70.3328 37.6625 72.0303 39.0625 74.0636 39.0625C76.4764 39.0625 78.4386 37.1003 78.4386 34.6875C78.4386 32.2747 76.4764 30.3125 74.0636 30.3125C72.0303 30.3125 70.3328 31.7125 69.8439 33.5938H65.3136C64.8991 33.5938 64.5206 33.8278 64.3347 34.1986L62.4491 37.9688H51.0938V30.3125H60.9375C61.3291 30.3125 61.6922 30.1025 61.8869 29.7613L65.5848 23.2895C66.1656 23.575 66.8098 23.75 67.5 23.75C69.9128 23.75 71.875 21.7878 71.875 19.375C71.875 16.9622 69.9128 15 67.5 15C65.0872 15 63.125 16.9622 63.125 19.375C63.125 20.2905 63.4094 21.1392 63.8928 21.8425L60.3031 28.125H51.0938V16.0938C51.0938 15.49 50.6048 15 50 15C46.7472 15 43.8203 16.7741 42.3033 19.5916C41.5923 19.4472 40.8727 19.375 40.1562 19.375C35.3077 19.375 31.1339 22.4878 29.7219 27.0477C23.9633 27.355 19.375 32.1358 19.375 37.9688C19.375 38.9761 19.5172 39.9769 19.7983 40.9547C16.8178 42.9803 15 46.3687 15 50C15 53.6312 16.8178 57.0186 19.7983 59.0453C19.5172 60.0242 19.375 61.025 19.375 62.0312C19.375 67.8642 23.9633 72.645 29.7219 72.9523C31.1339 77.5111 35.3077 80.625 40.1562 80.625C40.8727 80.625 41.5912 80.5528 42.3033 80.4084C43.8203 83.2259 46.7472 85 50 85C50.6048 85 51.0938 84.51 51.0938 83.9062V71.875H60.3031L63.8928 78.1575C63.4105 78.8608 63.125 79.7095 63.125 80.625C63.125 83.0378 65.0872 85 67.5 85C69.9128 85 71.875 83.0378 71.875 80.625C71.875 78.2122 69.9128 76.25 67.5 76.25C66.8098 76.25 66.1656 76.425 65.5848 76.7105L61.8869 70.2388C61.6922 69.8975 61.3291 69.6875 60.9375 69.6875H51.0938V62.0312H62.4491L64.3347 65.8014C64.5206 66.1722 64.8991 66.4062 65.3136 66.4062H69.8439C70.3328 68.2875 72.0303 69.6875 74.0636 69.6875C76.4764 69.6875 78.4386 67.7253 78.4386 65.3125C78.4386 62.8997 76.4764 60.9375 74.0636 60.9375C72.0303 60.9375 70.3328 62.3375 69.8439 64.2188H65.9895L64.1039 60.4486C63.918 60.0778 63.5395 59.8438 63.125 59.8438H51.0938V51.0938H76.4053C76.8942 52.975 78.5917 54.375 80.625 54.375C83.0378 54.375 85 52.4128 85 50C85 47.5872 83.0378 45.625 80.625 45.625ZM74.0625 32.5C75.2689 32.5 76.25 33.4811 76.25 34.6875C76.25 35.8939 75.2689 36.875 74.0625 36.875C72.8561 36.875 71.875 35.8939 71.875 34.6875C71.875 33.4811 72.8561 32.5 74.0625 32.5ZM67.5 17.1875C68.7064 17.1875 69.6875 18.1686 69.6875 19.375C69.6875 20.5814 68.7064 21.5625 67.5 21.5625C66.2936 21.5625 65.3125 20.5814 65.3125 19.375C65.3125 18.1686 66.2936 17.1875 67.5 17.1875ZM69.6875 80.625C69.6875 81.8314 68.7064 82.8125 67.5 82.8125C66.2936 82.8125 65.3125 81.8314 65.3125 80.625C65.3125 79.4186 66.2936 78.4375 67.5 78.4375C68.7064 78.4375 69.6875 79.4186 69.6875 80.625ZM74.0625 63.125C75.2689 63.125 76.25 64.1061 76.25 65.3125C76.25 66.5189 75.2689 67.5 74.0625 67.5C72.8561 67.5 71.875 66.5189 71.875 65.3125C71.875 64.1061 72.8561 63.125 74.0625 63.125ZM43.922 78.7208C43.7514 78.2997 43.3445 78.0394 42.9092 78.0394C42.8075 78.0394 42.7047 78.0536 42.6041 78.0831C41.7969 78.3183 40.9733 78.4375 40.1562 78.4375C36.0416 78.4375 32.5339 75.6353 31.6283 71.6213C31.6261 71.6103 31.6184 71.6016 31.6152 71.5906C31.4773 70.9694 31.4052 70.3295 31.4052 69.6875C31.4052 67.9473 31.9148 66.2673 32.8784 64.8269C33.2153 64.3248 33.0808 63.6456 32.5788 63.3098C32.0778 62.9741 31.3975 63.1086 31.0606 63.6106C29.8553 65.4109 29.2177 67.512 29.2177 69.6875C29.2177 70.0309 29.2428 70.3733 29.2745 70.7145C24.9378 70.1994 21.5614 66.5047 21.5614 62.0312C21.5614 60.9922 21.7528 59.9586 22.1269 58.96C22.7667 57.2614 23.9348 55.7695 25.4508 54.7534C25.9528 54.4177 26.0873 53.7373 25.7505 53.2364C25.4125 52.7333 24.7333 52.5998 24.2323 52.9356C22.7175 53.9495 21.4772 55.3441 20.6306 56.9475C18.4814 55.3047 17.1842 52.7388 17.1842 49.9989C17.1842 46.8522 18.8927 43.933 21.6413 42.3798C21.6981 42.3481 21.8786 42.2431 21.9223 42.2202C23.1703 41.5759 24.52 41.2489 25.9342 41.2489C28.5887 41.2489 31.0694 42.4334 32.7406 44.4995C32.9561 44.7664 33.2722 44.9053 33.5916 44.9053C33.8333 44.9053 34.075 44.8255 34.2784 44.6614C34.7487 44.2819 34.8209 43.5928 34.4403 43.1236C32.3523 40.5423 29.2516 39.0614 25.9342 39.0614C24.5112 39.0614 23.0992 39.3556 21.7878 39.8916C21.6412 39.2561 21.5592 38.6141 21.5592 37.9677C21.5592 33.5106 24.9105 29.8291 29.2723 29.2953C29.2406 29.6333 29.2155 29.9723 29.2155 30.3114C29.2155 31.5627 29.4244 32.7887 29.8389 33.958C29.9975 34.4075 30.4186 34.6875 30.8692 34.6875C30.9895 34.6875 31.1142 34.6667 31.2345 34.6241C31.8044 34.4217 32.1019 33.7972 31.8995 33.2284C31.5692 32.2944 31.4019 31.3133 31.4019 30.3114C31.4019 29.6694 31.4741 29.0295 31.6119 28.4083C31.6152 28.3973 31.6217 28.3886 31.6239 28.3777C32.5295 24.3647 36.0372 21.5614 40.1519 21.5614C40.9306 21.5614 41.7159 21.6773 42.487 21.8906C43.6333 22.2089 44.7227 22.7536 45.6513 23.505C45.8547 23.6691 46.0964 23.7489 46.3381 23.7489C46.6575 23.7489 46.9736 23.61 47.1891 23.3431C47.5697 22.8739 47.4964 22.1848 47.0272 21.8053C46.2463 21.1731 45.3691 20.6667 44.4459 20.2708C45.4402 18.6794 47.0513 17.5867 48.9019 17.2783V36.7995C44.5925 36.2581 41.2456 32.5788 41.2456 28.125C41.2456 27.5212 40.7567 27.0312 40.1519 27.0312C39.547 27.0312 39.0581 27.5212 39.0581 28.125C39.0581 29.3609 39.2736 30.5444 39.6531 31.6534C37.8364 32.2069 36.4266 33.6583 35.9486 35.5078C35.7977 36.093 36.1509 36.6891 36.735 36.84C36.8269 36.863 36.9187 36.875 37.0095 36.875C37.4962 36.875 37.9414 36.548 38.0683 36.0547C38.3658 34.8986 39.2692 33.9952 40.4242 33.6977C40.4756 33.6845 40.5128 33.6517 40.5609 33.632C42.2869 36.5775 45.3417 38.6534 48.9019 39.0078V63.1961C46.4628 63.5045 44.2414 64.8291 42.8152 66.8744C42.4706 67.3698 42.5909 68.0523 43.0864 68.398C43.2778 68.5314 43.4955 68.5948 43.7109 68.5948C44.0566 68.5948 44.3967 68.4319 44.6089 68.1267C45.625 66.6698 47.1814 65.7095 48.9019 65.4175V82.7239C46.6816 82.3531 44.7905 80.8645 43.9177 78.723L43.922 78.7208ZM80.625 52.1875C79.4186 52.1875 78.4375 51.2064 78.4375 50C78.4375 48.7936 79.4186 47.8125 80.625 47.8125C81.8314 47.8125 82.8125 48.7936 82.8125 50C82.8125 51.2064 81.8314 52.1875 80.625 52.1875Z" fill="white"></path><path d="M71.875 24.8438H69.6875V27.0312H71.875V24.8438Z" fill="white"></path><path d="M80.625 24.8438H74.0625V27.0312H80.625V24.8438Z" fill="white"></path><path d="M70.7812 43.4375H68.5938V45.625H70.7812V43.4375Z" fill="white"></path><path d="M66.4062 43.4375H59.8438V45.625H66.4062V43.4375Z" fill="white"></path><path d="M80.625 72.9688H78.4375V75.1562H80.625V72.9688Z" fill="white"></path><path d="M76.25 72.9688H69.6875V75.1562H76.25V72.9688Z" fill="white"></path><path d="M62.0312 54.375H59.8438V56.5625H62.0312V54.375Z" fill="white"></path><path d="M70.7812 54.375H64.2188V56.5625H70.7812V54.375Z" fill="white"></path></svg>