<svg width="800" height="600" viewBox="0 0 800 600" xmlns="http://www.w3.org/2000/svg">
  <defs>
    <linearGradient id="bgGradient" x1="0%" y1="0%" x2="100%" y2="100%">
      <stop offset="0%" style="stop-color:#064e3b;stop-opacity:1" />
      <stop offset="100%" style="stop-color:#065f46;stop-opacity:1" />
    </linearGradient>
    <linearGradient id="glassGlow" x1="0%" y1="0%" x2="100%" y2="100%">
      <stop offset="0%" style="stop-color:#34d399;stop-opacity:0.8" />
      <stop offset="100%" style="stop-color:#10b981;stop-opacity:0.9" />
    </linearGradient>
    <linearGradient id="liquidGlow" x1="0%" y1="0%" x2="100%" y2="100%">
      <stop offset="0%" style="stop-color:#60a5fa;stop-opacity:0.7" />
      <stop offset="100%" style="stop-color:#3b82f6;stop-opacity:0.8" />
    </linearGradient>
    <radialGradient id="moleculeGlow" cx="50%" cy="50%" r="50%">
      <stop offset="0%" style="stop-color:#fbbf24;stop-opacity:1" />
      <stop offset="100%" style="stop-color:#f59e0b;stop-opacity:0.6" />
    </radialGradient>
  </defs>
  
  <!-- Background -->
  <rect width="800" height="600" fill="url(#bgGradient)"/>
  
  <!-- Laboratory equipment - Main microscope -->
  <g transform="translate(350, 200)">
    <!-- Microscope base -->
    <rect x="0" y="120" width="100" height="40" rx="8" fill="#374151"/>
    <!-- Microscope arm -->
    <rect x="35" y="60" width="30" height="80" rx="4" fill="#4b5563"/>
    <!-- Microscope head -->
    <circle cx="50" cy="50" r="25" fill="#6b7280"/>
    <circle cx="50" cy="50" r="18" fill="#1f2937"/>
    <circle cx="50" cy="50" r="12" fill="url(#glassGlow)"/>
    <!-- Objective lenses -->
    <rect x="45" y="75" width="10" height="15" fill="#374151"/>
    <rect x="42" y="90" width="16" height="8" fill="#4b5563"/>
    <!-- Stage -->
    <rect x="20" y="95" width="60" height="25" rx="4" fill="#6b7280"/>
    <rect x="30" y="100" width="40" height="15" fill="#1f2937"/>
  </g>
  
  <!-- Laboratory glassware -->
  <g transform="translate(150, 300)">
    <!-- Erlenmeyer flask -->
    <path d="M30 20 L40 20 L50 60 L60 80 L10 80 L20 60 Z" fill="url(#glassGlow)" opacity="0.8"/>
    <rect x="28" y="15" width="14" height="8" fill="#34d399" opacity="0.6"/>
    <!-- Liquid inside -->
    <path d="M22 65 L48 65 L55 75 L15 75 Z" fill="url(#liquidGlow)"/>
    
    <!-- Test tubes -->
    <g transform="translate(80, 0)">
      <rect x="5" y="30" width="8" height="50" rx="4" fill="url(#glassGlow)" opacity="0.8"/>
      <rect x="7" y="60" width="4" height="18" fill="#ef4444" opacity="0.8"/>
      
      <rect x="18" y="25" width="8" height="55" rx="4" fill="url(#glassGlow)" opacity="0.8"/>
      <rect x="20" y="55" width="4" height="23" fill="#3b82f6" opacity="0.8"/>
      
      <rect x="31" y="35" width="8" height="45" rx="4" fill="url(#glassGlow)" opacity="0.8"/>
      <rect x="33" y="65" width="4" height="13" fill="#10b981" opacity="0.8"/>
    </g>
    
    <!-- Beaker -->
    <g transform="translate(140, 10)">
      <rect x="0" y="20" width="40" height="50" rx="2" fill="url(#glassGlow)" opacity="0.8"/>
      <rect x="2" y="50" width="36" height="18" fill="url(#liquidGlow)"/>
      <rect x="-2" y="18" width="44" height="4" fill="#34d399" opacity="0.6"/>
    </g>
  </g>
  
  <!-- DNA helix -->
  <g transform="translate(550, 150)">
    <g opacity="0.7">
      <!-- DNA strand 1 -->
      <path d="M20 0 Q40 20 20 40 Q0 60 20 80 Q40 100 20 120 Q0 140 20 160" 
            fill="none" stroke="#3b82f6" stroke-width="4"/>
      <!-- DNA strand 2 -->
      <path d="M0 0 Q-20 20 0 40 Q20 60 0 80 Q-20 100 0 120 Q20 140 0 160" 
            fill="none" stroke="#10b981" stroke-width="4"/>
      
      <!-- Base pairs -->
      <line x1="10" y1="10" x2="10" y2="10" stroke="#f59e0b" stroke-width="2"/>
      <line x1="10" y1="30" x2="10" y2="30" stroke="#ef4444" stroke-width="2"/>
      <line x1="10" y1="50" x2="10" y2="50" stroke="#f59e0b" stroke-width="2"/>
      <line x1="10" y1="70" x2="10" y2="70" stroke="#8b5cf6" stroke-width="2"/>
      <line x1="10" y1="90" x2="10" y2="90" stroke="#ef4444" stroke-width="2"/>
      <line x1="10" y1="110" x2="10" y2="110" stroke="#f59e0b" stroke-width="2"/>
      <line x1="10" y1="130" x2="10" y2="130" stroke="#8b5cf6" stroke-width="2"/>
      <line x1="10" y1="150" x2="10" y2="150" stroke="#ef4444" stroke-width="2"/>
    </g>
  </g>
  
  <!-- Molecular structure -->
  <g transform="translate(100, 100)">
    <g opacity="0.8">
      <!-- Carbon atoms -->
      <circle cx="50" cy="50" r="8" fill="url(#moleculeGlow)"/>
      <circle cx="80" cy="30" r="8" fill="url(#moleculeGlow)"/>
      <circle cx="80" cy="70" r="8" fill="url(#moleculeGlow)"/>
      <circle cx="110" cy="50" r="8" fill="url(#moleculeGlow)"/>
      
      <!-- Bonds -->
      <line x1="58" y1="50" x2="72" y2="35" stroke="#60a5fa" stroke-width="3"/>
      <line x1="58" y1="50" x2="72" y2="65" stroke="#60a5fa" stroke-width="3"/>
      <line x1="88" y1="30" x2="102" y2="45" stroke="#60a5fa" stroke-width="3"/>
      <line x1="88" y1="70" x2="102" y2="55" stroke="#60a5fa" stroke-width="3"/>
      
      <!-- Hydrogen atoms -->
      <circle cx="30" cy="45" r="4" fill="#e5e7eb"/>
      <circle cx="30" cy="55" r="4" fill="#e5e7eb"/>
      <circle cx="130" cy="45" r="4" fill="#e5e7eb"/>
      <circle cx="130" cy="55" r="4" fill="#e5e7eb"/>
      
      <!-- H bonds -->
      <line x1="42" y1="48" x2="34" y2="47" stroke="#9ca3af" stroke-width="2"/>
      <line x1="42" y1="52" x2="34" y2="53" stroke="#9ca3af" stroke-width="2"/>
      <line x1="118" y1="48" x2="126" y2="47" stroke="#9ca3af" stroke-width="2"/>
      <line x1="118" y1="52" x2="126" y2="53" stroke="#9ca3af" stroke-width="2"/>
    </g>
  </g>
  
  <!-- Petri dishes -->
  <g transform="translate(450, 400)">
    <circle cx="40" cy="40" r="35" fill="url(#glassGlow)" opacity="0.6"/>
    <circle cx="40" cy="40" r="30" fill="#065f46"/>
    <!-- Bacterial colonies -->
    <circle cx="35" cy="35" r="4" fill="#34d399" opacity="0.8"/>
    <circle cx="45" cy="30" r="3" fill="#10b981" opacity="0.8"/>
    <circle cx="50" cy="45" r="5" fill="#34d399" opacity="0.8"/>
    <circle cx="30" cy="50" r="3" fill="#10b981" opacity="0.8"/>
    
    <circle cx="120" cy="40" r="35" fill="url(#glassGlow)" opacity="0.6"/>
    <circle cx="120" cy="40" r="30" fill="#065f46"/>
    <!-- Different bacterial pattern -->
    <circle cx="115" cy="38" r="3" fill="#60a5fa" opacity="0.8"/>
    <circle cx="125" cy="35" r="4" fill="#3b82f6" opacity="0.8"/>
    <circle cx="130" cy="45" r="3" fill="#60a5fa" opacity="0.8"/>
    <circle cx="110" cy="48" r="5" fill="#3b82f6" opacity="0.8"/>
  </g>
  
  <!-- Centrifuge -->
  <g transform="translate(650, 300)">
    <circle cx="50" cy="50" r="40" fill="#374151"/>
    <circle cx="50" cy="50" r="35" fill="#4b5563"/>
    <circle cx="50" cy="50" r="25" fill="#1f2937"/>
    
    <!-- Centrifuge tubes -->
    <rect x="45" y="30" width="4" height="15" fill="#34d399" rx="2"/>
    <rect x="51" y="30" width="4" height="15" fill="#3b82f6" rx="2"/>
    <rect x="45" y="55" width="4" height="15" fill="#ef4444" rx="2"/>
    <rect x="51" y="55" width="4" height="15" fill="#f59e0b" rx="2"/>
    
    <!-- Center rotor -->
    <circle cx="50" cy="50" r="8" fill="#6b7280"/>
    <circle cx="50" cy="50" r="4" fill="#9ca3af"/>
  </g>
  
  <!-- Validation checklist/clipboard -->
  <g transform="translate(50, 450)">
    <rect x="0" y="0" width="120" height="140" rx="8" fill="#f3f4f6"/>
    <rect x="10" y="20" width="100" height="110" fill="white"/>
    
    <!-- Clipboard clip -->
    <rect x="45" y="-5" width="30" height="15" rx="4" fill="#6b7280"/>
    
    <!-- Checklist items -->
    <rect x="20" y="35" width="8" height="8" fill="#10b981"/>
    <rect x="35" y="35" width="60" height="3" fill="#374151"/>
    
    <rect x="20" y="50" width="8" height="8" fill="#10b981"/>
    <rect x="35" y="50" width="45" height="3" fill="#374151"/>
    
    <rect x="20" y="65" width="8" height="8" fill="#f59e0b"/>
    <rect x="35" y="65" width="55" height="3" fill="#374151"/>
    
    <rect x="20" y="80" width="8" height="8" fill="#10b981"/>
    <rect x="35" y="80" width="50" height="3" fill="#374151"/>
    
    <rect x="20" y="95" width="8" height="8" fill="#ef4444"/>
    <rect x="35" y="95" width="40" height="3" fill="#374151"/>
    
    <!-- Checkmarks -->
    <path d="M22 38 L24 40 L26 36" fill="none" stroke="white" stroke-width="2"/>
    <path d="M22 53 L24 55 L26 51" fill="none" stroke="white" stroke-width="2"/>
    <path d="M22 83 L24 85 L26 81" fill="none" stroke="white" stroke-width="2"/>
  </g>
  
  <!-- Floating particles/cells -->
  <g opacity="0.4">
    <circle cx="200" cy="80" r="3" fill="#34d399"/>
    <circle cx="380" cy="120" r="2" fill="#3b82f6"/>
    <circle cx="480" cy="90" r="4" fill="#f59e0b"/>
    <circle cx="580" cy="60" r="2" fill="#10b981"/>
    <circle cx="320" cy="450" r="3" fill="#8b5cf6"/>
    <circle cx="420" cy="520" r="2" fill="#ef4444"/>
    <circle cx="180" cy="500" r="4" fill="#34d399"/>
  </g>
  
  <!-- Subtle overlay for depth -->
  <rect width="800" height="600" fill="url(#bgGradient)" opacity="0.1"/>
</svg>